<?xml version="1.0" ?><svg id="Layer_1" style="enable-background:new 0 0 515 515;" version="1.1" viewBox="0 0 515 515" xml:space="preserve" xmlns="http://www.w3.org/2000/svg" xmlns:xlink="http://www.w3.org/1999/xlink"><title/><g id="Layer_2"><g id="Layer_1-2"><path d="M218.3,221.1h-35.1c-1.9,0-3.5,1.6-3.5,3.5v105.6c0,1.9,1.6,3.5,3.5,3.5h35.1c1.9,0,3.5-1.6,3.5-3.5V224.6    C221.8,222.7,220.3,221.1,218.3,221.1L218.3,221.1z"/><path d="M200.6,213.7h0.2c6.9,0,12.8-2.3,16.9-6.3c4.2-4.1,6.5-9.6,6.4-15.5v-0.1c0-2.9-0.6-5.8-1.7-8.5c-1.6-4-4.5-7.3-8.1-9.6    c-4-2.4-8.6-3.7-13.3-3.6c-6.8,0-12.7,2.3-16.8,6.2c-4.2,4.1-6.6,9.7-6.5,15.6c-0.1,5.8,2.2,11.4,6.4,15.4    C188.5,211.6,194.4,213.8,200.6,213.7z"/><path d="M234.3,323.1c0,2.2,0,4,0,5.3v1.9c0,1.9,1.5,3.5,3.5,3.5c0,0,0,0,0,0h35.1c1.9,0,3.5-1.6,3.5-3.5v-59    c0-1.4,0.1-2.8,0.2-4.2c0.1-1,0.3-2,0.7-3l0,0c1.1-2.9,2.9-5.4,5.3-7.4c1.2-1,2.6-1.8,4.1-2.4c1.7-0.6,3.5-0.9,5.4-0.9    c2.3-0.1,4.5,0.4,6.6,1.4c1.3,0.6,2.4,1.5,3.3,2.6c1.6,1.9,2.7,4.2,3.3,6.6c0.8,3.2,1.2,6.5,1.1,9.9v56.5c0,1.9,1.6,3.5,3.5,3.5    H345c1.9,0,3.5-1.6,3.5-3.5v-60.6c0.1-7.5-1-15-3.3-22.2c-3.2-9.6-8.7-16.9-15.8-21.7s-15.7-7.1-24.9-7.1c-4.5,0-8.9,0.6-13.2,1.9    c-5.1,1.6-9.8,4.2-13.7,7.8c-0.4,0.4-0.9,0.8-1.3,1.2v-4.9c0-1.9-1.6-3.5-3.5-3.5h-35.2c-1.9,0-3.5,1.6-3.5,3.5c0,0.1,0,0.1,0,0.2    c0,0.7,0.1,2.1,0.1,4c0.1,5.7,0.1,15.9,0.1,27.6c0,15.6-0.1,34.1-0.1,48.6C234.3,312.3,234.3,318.6,234.3,323.1z"/><path d="M257.5,465.8c115.2,0.1,208.6-93.1,208.8-208.3S373.1,48.9,258,48.7S49.3,141.9,49.2,257c-0.1,55.4,21.9,108.5,61.1,147.7    C149.3,443.9,202.3,465.8,257.5,465.8z M257.5,70.1c103.6-0.1,187.7,83.9,187.8,187.5c0.1,103.6-83.9,187.7-187.5,187.8    C154.2,445.4,70.1,361.5,70,257.9c0-49.8,19.7-97.6,55-132.9C160.1,89.8,207.8,70,257.5,70.1L257.5,70.1z"/></g></g></svg>